<?xml version="1.0" encoding="utf-8"?>
<!-- Generator: Adobe Illustrator 24.3.0, SVG Export Plug-In . SVG Version: 6.00 Build 0)  -->
<svg version="1.1" id="Layer_1" xmlns="http://www.w3.org/2000/svg" xmlns:xlink="http://www.w3.org/1999/xlink" x="0px" y="0px"
	 viewBox="0 0 500 342.29" style="enable-background:new 0 0 500 342.29;" xml:space="preserve">
<style type="text/css">
	.st0{fill:#FFFFFF;}
	.st1{fill:#4953A4;}
	.st2{fill:#F47F72;}
</style>
<g>
	<path class="st1" d="M60.24,107.73c12.84,0,23.87,2.61,33.08,7.82s16.18,12.62,20.91,22.22s7.1,20.88,7.1,33.84
		c0,9.58-1.3,18.28-3.89,26.11c-2.59,7.83-6.48,14.62-11.66,20.36s-11.55,10.14-19.1,13.18c-7.55,3.04-16.19,4.56-25.94,4.56
		c-9.69,0-18.36-1.56-26.02-4.69s-14.05-7.53-19.18-13.22c-5.13-5.69-9-12.53-11.62-20.53c-2.62-8-3.93-16.65-3.93-25.94
		c0-9.52,1.37-18.25,4.1-26.19s6.69-14.7,11.87-20.28c5.18-5.58,11.49-9.84,18.93-12.8S50.78,107.73,60.24,107.73z M95.9,171.44
		c0-9.07-1.46-16.93-4.39-23.57c-2.93-6.65-7.11-11.67-12.55-15.08s-11.67-5.11-18.72-5.11c-5.01,0-9.65,0.94-13.9,2.83
		s-7.91,4.63-10.98,8.24s-5.49,8.21-7.27,13.81s-2.66,11.9-2.66,18.88c0,7.04,0.89,13.41,2.66,19.1c1.77,5.69,4.28,10.41,7.52,14.15
		s6.96,6.55,11.15,8.41s8.8,2.79,13.81,2.79c6.42,0,12.32-1.61,17.7-4.82c5.38-3.21,9.66-8.17,12.84-14.87
		C94.31,189.5,95.9,181.24,95.9,171.44z"/>
</g>
<path class="st1" d="M234.18,182.06v36.68c0,5.79-1.31,10.14-3.94,13.04s-6.1,4.35-10.41,4.35c-4.18,0-7.56-1.45-10.16-4.35
	c-2.59-2.9-3.89-7.24-3.89-13.04v-43.96c0-6.94-0.24-12.33-0.71-16.17c-0.47-3.84-1.75-6.99-3.84-9.45
	c-2.09-2.46-5.39-3.69-9.9-3.69c-9.03,0-14.97,3.1-17.84,9.3c-2.86,6.2-4.29,15.09-4.29,26.68v37.29c0,5.73-1.3,10.05-3.89,12.99
	c-2.59,2.93-6.01,4.4-10.26,4.4c-4.18,0-7.6-1.47-10.26-4.4c-2.66-2.93-3.99-7.26-3.99-12.99v-78.92c0-5.19,1.2-9.13,3.59-11.82
	s5.54-4.04,9.45-4.04c3.77,0,6.92,1.26,9.45,3.79c2.53,2.53,3.79,6.01,3.79,10.46v2.63c4.78-5.73,9.9-9.94,15.36-12.63
	s11.52-4.04,18.19-4.04c6.94,0,12.9,1.38,17.89,4.14c4.99,2.76,9.09,6.94,12.33,12.53c4.65-5.66,9.63-9.85,14.96-12.58
	c5.32-2.73,11.22-4.09,17.68-4.09c7.55,0,14.05,1.48,19.5,4.45c5.46,2.96,9.53,7.21,12.23,12.73c2.36,4.99,3.54,12.83,3.54,23.55
	v53.86c0,5.79-1.31,10.14-3.94,13.04s-6.1,4.35-10.41,4.35c-4.18,0-7.6-1.47-10.26-4.4c-2.66-2.93-3.99-7.26-3.99-12.99v-46.38
	c0-5.93-0.25-10.68-0.76-14.25c-0.51-3.57-1.87-6.57-4.09-8.99s-5.59-3.64-10.11-3.64c-3.64,0-7.09,1.08-10.36,3.23
	c-3.27,2.16-5.81,5.05-7.63,8.69C235.19,162.05,234.18,170.27,234.18,182.06z"/>
<path class="st1" d="M345.97,139.21v3.33c4.85-6.4,10.16-11.1,15.92-14.1c5.76-3,12.38-4.5,19.86-4.5c7.28,0,13.78,1.58,19.5,4.75
	c5.73,3.17,10,7.65,12.83,13.44c1.82,3.37,3,7.01,3.54,10.91s0.81,8.89,0.81,14.96v51.33c0,5.52-1.26,9.7-3.79,12.53
	c-2.53,2.83-5.81,4.24-9.85,4.24c-4.11,0-7.44-1.45-10-4.35c-2.56-2.9-3.84-7.04-3.84-12.43v-45.98c0-9.09-1.26-16.05-3.79-20.87
	c-2.53-4.82-7.56-7.23-15.11-7.23c-4.92,0-9.4,1.47-13.44,4.4c-4.04,2.93-7.01,6.96-8.89,12.08c-1.35,4.11-2.02,11.79-2.02,23.04
	v34.56c0,5.59-1.3,9.79-3.89,12.58c-2.59,2.8-5.95,4.19-10.05,4.19c-3.97,0-7.24-1.45-9.8-4.35c-2.56-2.9-3.84-7.04-3.84-12.43
	v-79.73c0-5.25,1.15-9.18,3.44-11.77c2.29-2.59,5.42-3.89,9.4-3.89c2.43,0,4.61,0.57,6.57,1.72c1.95,1.15,3.52,2.86,4.7,5.15
	C345.38,133.12,345.97,135.91,345.97,139.21z"/>
<path class="st1" d="M468.87,139.62v79.73c0,5.52-1.31,9.7-3.94,12.53s-5.96,4.24-10,4.24c-4.04,0-7.33-1.45-9.85-4.35
	c-2.53-2.9-3.79-7.04-3.79-12.43v-78.92c0-5.46,1.26-9.57,3.79-12.33c2.53-2.76,5.81-4.14,9.85-4.14c4.04,0,7.38,1.38,10,4.14
	C467.56,130.86,468.87,134.7,468.87,139.62z"/>
<path class="st2" d="M473.95,85.56c-13.71-11.51-27.21-23.54-37.8-38.09c-5.24-7.19-14.96-19.36-10.94-28.96
	c1.65-3.94,5.64-3.3,8.59-1.09c4.57,3.44,6.95,9.8,9.26,14.8c2.92,6.34,11.04,3.27,13.13-1.72c3.41-8.12,12.11-17.25,21.75-16.09
	c11.28,1.36,7.75,15.83,3.68,22.28c-3.1,4.91-7.34,9.03-11.29,13.25c-5.04,5.39-10.08,10.77-15.13,16.16
	c-9.66,10.32-19.33,20.64-28.99,30.97c-6.32,6.75,3.82,16.93,10.16,10.16c12.61-13.46,25.21-26.93,37.82-40.39
	c10.85-11.59,24.59-23.47,25.75-40.4c1.03-15.03-10.2-27.82-25.69-26.32c-15.22,1.48-26.25,13.09-31.92,26.56
	c4.38-0.57,8.76-1.14,13.13-1.72c-5.71-12.4-15.82-27.63-31.89-22.98c-16.66,4.82-14.88,26.35-8.82,38.5
	c11.02,22.1,30.42,39.6,49.04,55.24C470.83,101.64,481.05,91.52,473.95,85.56L473.95,85.56z"/>
<g>
	<path class="st2" d="M44.3,334.57l-6.45-6.98c-1.59,0.46-3.33,0.69-5.23,0.69c-3.42,0-6.56-0.8-9.44-2.41
		c-2.88-1.61-5.15-3.84-6.82-6.71c-1.68-2.87-2.51-6.11-2.51-9.7s0.84-6.82,2.51-9.68c1.67-2.85,3.95-5.08,6.82-6.69
		c2.87-1.6,6.02-2.4,9.44-2.4c3.45,0,6.62,0.8,9.49,2.4c2.87,1.61,5.14,3.84,6.79,6.69c1.65,2.86,2.48,6.08,2.48,9.68
		c0,3.38-0.73,6.44-2.19,9.17c-1.46,2.73-3.48,4.92-6.06,6.58l8.83,9.36H44.3z M21.64,316.62c1.07,2.06,2.57,3.65,4.47,4.76
		c1.9,1.11,4.07,1.66,6.5,1.66s4.6-0.55,6.5-1.66c1.9-1.11,3.39-2.7,4.47-4.76c1.07-2.06,1.61-4.45,1.61-7.16
		c0-2.72-0.54-5.09-1.61-7.14c-1.08-2.04-2.57-3.61-4.47-4.71c-1.9-1.09-4.07-1.64-6.5-1.64s-4.6,0.55-6.5,1.64
		c-1.9,1.09-3.39,2.67-4.47,4.71c-1.07,2.05-1.61,4.42-1.61,7.14C20.03,312.17,20.57,314.55,21.64,316.62z"/>
	<path class="st2" d="M90.77,298.77v29.14h-6.03v-3.44c-0.95,1.2-2.19,2.14-3.73,2.83c-1.53,0.69-3.17,1.03-4.89,1.03
		c-2.29,0-4.34-0.48-6.16-1.43c-1.81-0.95-3.24-2.36-4.28-4.23c-1.04-1.87-1.56-4.13-1.56-6.77v-17.13h5.98V315
		c0,2.61,0.65,4.61,1.96,6c1.3,1.39,3.08,2.09,5.34,2.09s4.05-0.69,5.37-2.09c1.32-1.39,1.98-3.39,1.98-6v-16.23H90.77z"/>
	<path class="st2" d="M105.45,305.43c1.22-2.26,2.87-4.01,4.97-5.26c2.1-1.25,4.41-1.88,6.95-1.88c2.29,0,4.29,0.45,6,1.35
		c1.71,0.9,3.07,2.02,4.1,3.36v-4.23h6.08v29.14h-6.08v-4.34c-1.02,1.38-2.42,2.52-4.18,3.44c-1.76,0.92-3.77,1.38-6.03,1.38
		c-2.5,0-4.8-0.64-6.87-1.93c-2.08-1.29-3.73-3.08-4.94-5.39c-1.22-2.31-1.82-4.92-1.82-7.85
		C103.62,310.28,104.23,307.69,105.45,305.43z M126.22,308.08c-0.83-1.48-1.91-2.61-3.25-3.38c-1.34-0.77-2.79-1.16-4.34-1.16
		s-2.99,0.38-4.34,1.14c-1.34,0.76-2.42,1.87-3.25,3.33c-0.83,1.46-1.24,3.2-1.24,5.21c0,2.01,0.42,3.77,1.24,5.29
		c0.83,1.52,1.92,2.67,3.28,3.46c1.36,0.79,2.8,1.19,4.31,1.19c1.55,0,3-0.39,4.34-1.16c1.34-0.77,2.42-1.91,3.25-3.41
		c0.83-1.5,1.24-3.25,1.24-5.26C127.47,311.3,127.05,309.56,126.22,308.08z"/>
	<path class="st2" d="M154.44,288.77v39.13h-6.03v-39.13H154.44z"/>
	<path class="st2" d="M169.61,293.8c-0.74-0.74-1.11-1.65-1.11-2.75c0-1.09,0.37-2.01,1.11-2.75c0.74-0.74,1.66-1.11,2.75-1.11
		c1.06,0,1.96,0.37,2.7,1.11c0.74,0.74,1.11,1.66,1.11,2.75c0,1.09-0.37,2.01-1.11,2.75c-0.74,0.74-1.64,1.11-2.7,1.11
		C171.27,294.91,170.35,294.54,169.61,293.8z M175.32,298.77v29.14h-6.03v-29.14H175.32z"/>
	<path class="st2" d="M197.21,303.69v16.12c0,1.09,0.26,1.88,0.77,2.36c0.51,0.47,1.38,0.71,2.62,0.71h3.7v5.02h-4.76
		c-2.72,0-4.8-0.63-6.24-1.91c-1.45-1.27-2.17-3.33-2.17-6.19v-16.12h-3.44v-4.92h3.44v-7.24h6.08v7.24h7.09v4.92H197.21z"/>
	<path class="st2" d="M243,298.77l-17.87,42.83h-6.24l5.92-14.17l-11.47-28.66h6.71l8.2,22.21l8.51-22.21H243z"/>
	<path class="st2" d="M281.17,323.04h12.43v4.87h-18.45v-36.75h6.03V323.04z"/>
	<path class="st2" d="M305.86,293.8c-0.74-0.74-1.11-1.65-1.11-2.75c0-1.09,0.37-2.01,1.11-2.75c0.74-0.74,1.66-1.11,2.75-1.11
		c1.06,0,1.96,0.37,2.7,1.11c0.74,0.74,1.11,1.66,1.11,2.75c0,1.09-0.37,2.01-1.11,2.75c-0.74,0.74-1.64,1.11-2.7,1.11
		C307.52,294.91,306.6,294.54,305.86,293.8z M311.58,298.77v29.14h-6.03v-29.14H311.58z"/>
	<path class="st2" d="M337.69,322.51l8.24-23.74h6.4l-11.11,29.14h-7.19l-11.05-29.14h6.45L337.69,322.51z"/>
	<path class="st2" d="M364.13,293.8c-0.74-0.74-1.11-1.65-1.11-2.75c0-1.09,0.37-2.01,1.11-2.75c0.74-0.74,1.65-1.11,2.75-1.11
		c1.06,0,1.96,0.37,2.7,1.11s1.11,1.66,1.11,2.75c0,1.09-0.37,2.01-1.11,2.75c-0.74,0.74-1.64,1.11-2.7,1.11
		C365.78,294.91,364.87,294.54,364.13,293.8z M369.84,298.77v29.14h-6.03v-29.14H369.84z"/>
	<path class="st2" d="M405.55,299.72c1.82,0.95,3.24,2.36,4.26,4.23c1.02,1.87,1.54,4.13,1.54,6.77v17.19h-5.98v-16.29
		c0-2.61-0.65-4.6-1.96-6c-1.3-1.39-3.08-2.09-5.34-2.09c-2.25,0-4.04,0.69-5.36,2.09c-1.32,1.39-1.99,3.39-1.99,6v16.29h-6.03
		v-29.14h6.03v3.33c0.99-1.2,2.25-2.13,3.78-2.8c1.53-0.67,3.16-1,4.89-1C401.68,298.29,403.74,298.77,405.55,299.72z"/>
	<path class="st2" d="M443.68,299.64c1.74,0.9,3.11,2.02,4.09,3.36v-4.23h6.08v29.61c0,2.68-0.56,5.07-1.69,7.16
		c-1.13,2.1-2.76,3.75-4.89,4.95c-2.14,1.2-4.68,1.8-7.64,1.8c-3.95,0-7.23-0.93-9.84-2.78c-2.61-1.85-4.08-4.36-4.44-7.53h5.98
		c0.46,1.52,1.44,2.74,2.93,3.68c1.5,0.93,3.29,1.4,5.37,1.4c2.43,0,4.39-0.74,5.9-2.22c1.49-1.48,2.24-3.63,2.24-6.45v-4.86
		c-1.02,1.38-2.4,2.53-4.15,3.46c-1.75,0.93-3.73,1.4-5.95,1.4c-2.54,0-4.86-0.64-6.95-1.93c-2.1-1.29-3.76-3.08-4.97-5.39
		c-1.22-2.31-1.83-4.92-1.83-7.85c0-2.92,0.61-5.52,1.83-7.77c1.22-2.26,2.87-4.01,4.97-5.26c2.09-1.25,4.41-1.88,6.95-1.88
		C439.93,298.29,441.93,298.74,443.68,299.64z M446.53,308.08c-0.83-1.48-1.92-2.61-3.25-3.38c-1.34-0.77-2.78-1.16-4.34-1.16
		c-1.55,0-2.99,0.38-4.33,1.14c-1.34,0.76-2.43,1.87-3.25,3.33c-0.83,1.46-1.24,3.2-1.24,5.21c0,2.01,0.41,3.77,1.24,5.29
		c0.83,1.52,1.92,2.67,3.28,3.46c1.36,0.79,2.79,1.19,4.31,1.19c1.55,0,3-0.39,4.34-1.16c1.34-0.77,2.42-1.91,3.25-3.41
		c0.83-1.5,1.24-3.25,1.24-5.26C447.77,311.3,447.36,309.56,446.53,308.08z"/>
</g>
</svg>
