<svg width="125" height="109" viewBox="0 0 125 109" fill="none" xmlns="http://www.w3.org/2000/svg">
<path d="M22.8334 33.2708C25.5001 33.2708 27.8126 33.8125 29.7292 34.8958C31.6459 35.9792 33.1042 37.5208 34.0834 39.5208C35.0626 41.5208 35.5626 43.875 35.5626 46.5625C35.5626 48.5625 35.2917 50.375 34.7501 52C34.2084 53.625 33.3959 55.0417 32.3126 56.25C31.2292 57.4583 29.8959 58.375 28.3334 59.0208C26.7709 59.6458 24.9584 59.9792 22.9376 59.9792C20.9167 59.9792 19.1042 59.6458 17.5209 59C15.9376 58.3542 14.5834 57.4375 13.5209 56.25C12.4584 55.0625 11.6459 53.6458 11.1042 51.9792C10.5626 50.3125 10.2917 48.5208 10.2917 46.5833C10.2917 44.6042 10.5834 42.7708 11.1459 41.125C11.7084 39.4792 12.5417 38.0625 13.6251 36.8958C14.7084 35.7292 16.0209 34.8542 17.5626 34.2292C19.0834 33.5833 20.8542 33.2708 22.8334 33.2708ZM30.2501 46.5417C30.2501 44.6458 29.9376 43.0208 29.3334 41.625C28.7292 40.25 27.8542 39.1875 26.7292 38.4792C25.6042 37.7708 24.2917 37.4167 22.8334 37.4167C21.7917 37.4167 20.8334 37.6042 19.9376 38C19.0417 38.3958 18.2917 38.9583 17.6459 39.7083C17.0001 40.4583 16.5001 41.4167 16.1251 42.5833C15.7501 43.75 15.5626 45.0625 15.5626 46.5208C15.5626 47.9792 15.7501 49.3125 16.1251 50.5C16.5001 51.6875 17.0209 52.6667 17.6876 53.4583C18.3542 54.25 19.1459 54.8125 20.0209 55.2083C20.8959 55.6042 21.8542 55.7917 22.8959 55.7917C24.2292 55.7917 25.4584 55.4583 26.5834 54.7917C27.7084 54.125 28.6042 53.0833 29.2501 51.6875C29.8959 50.2917 30.2501 48.5833 30.2501 46.5417Z" fill="#ffffff"/>
<path d="M59.0626 48.75V56.3959C59.0626 57.6042 58.7917 58.5 58.2501 59.1042C57.7084 59.7084 56.9792 60 56.0834 60C55.2084 60 54.5001 59.7084 53.9584 59.1042C53.4167 58.5 53.1459 57.6042 53.1459 56.3959V47.2292C53.1459 45.7917 53.1042 44.6667 53.0001 43.8542C52.8959 43.0417 52.6251 42.3959 52.2084 41.8959C51.7709 41.375 51.0834 41.125 50.1459 41.125C48.2709 41.125 47.0209 41.7709 46.4376 43.0625C45.8542 44.3542 45.5417 46.2084 45.5417 48.625V56.3959C45.5417 57.5834 45.2709 58.5 44.7292 59.1042C44.1876 59.7084 43.4792 60.0209 42.5834 60.0209C41.7084 60.0209 41.0001 59.7084 40.4376 59.1042C39.8751 58.5 39.6042 57.5834 39.6042 56.3959V39.9584C39.6042 38.875 39.8542 38.0625 40.3542 37.5C40.8542 36.9375 41.5001 36.6667 42.3126 36.6667C43.1042 36.6667 43.7501 36.9375 44.2709 37.4584C44.7917 37.9792 45.0626 38.7084 45.0626 39.6459V40.1875C46.0626 39 47.1251 38.125 48.2709 37.5625C49.4167 37 50.6667 36.7292 52.0626 36.7292C53.5001 36.7292 54.7501 37.0209 55.7917 37.5834C56.8334 38.1667 57.6876 39.0209 58.3542 40.1875C59.3126 39 60.3542 38.125 61.4792 37.5625C62.5834 37 63.8126 36.7084 65.1667 36.7084C66.7292 36.7084 68.0834 37.0209 69.2292 37.625C70.3751 38.25 71.2084 39.125 71.7709 40.2709C72.2709 41.3125 72.5001 42.9375 72.5001 45.1667V56.3959C72.5001 57.6042 72.2292 58.5 71.6876 59.1042C71.1459 59.7084 70.4167 60 69.5209 60C68.6459 60 67.9376 59.6875 67.3751 59.0834C66.8126 58.4792 66.5417 57.5625 66.5417 56.375V46.7084C66.5417 45.4792 66.4792 44.4792 66.3751 43.75C66.2709 43 65.9792 42.375 65.5209 41.875C65.0626 41.375 64.3542 41.125 63.4167 41.125C62.6667 41.125 61.9376 41.3542 61.2501 41.7917C60.5626 42.25 60.0417 42.8542 59.6667 43.6042C59.2709 44.5834 59.0626 46.3125 59.0626 48.75Z" fill="#ffffff"/>
<path d="M82.3541 39.8333V40.5208C83.3749 39.1875 84.4791 38.2083 85.6666 37.5833C86.8541 36.9583 88.2499 36.6458 89.8124 36.6458C91.3333 36.6458 92.6874 36.9791 93.8749 37.625C95.0624 38.2916 95.9583 39.2083 96.5416 40.4166C96.9166 41.125 97.1666 41.875 97.2708 42.6875C97.3749 43.5 97.4374 44.5416 97.4374 45.8125V56.5C97.4374 57.6458 97.1666 58.5208 96.6458 59.1041C96.1249 59.6875 95.4374 59.9791 94.5833 59.9791C93.7291 59.9791 93.0416 59.6875 92.4999 59.0833C91.9583 58.4791 91.7083 57.625 91.7083 56.5V46.9166C91.7083 45.0208 91.4374 43.5625 90.9166 42.5625C90.3958 41.5625 89.3333 41.0625 87.7708 41.0625C86.7499 41.0625 85.8124 41.375 84.9791 41.9791C84.1458 42.5833 83.5208 43.4375 83.1249 44.5C82.8541 45.3541 82.7083 46.9583 82.7083 49.2916V56.5C82.7083 57.6666 82.4374 58.5416 81.8958 59.125C81.3541 59.7083 80.6666 60 79.7916 60C78.9583 60 78.2916 59.7083 77.7499 59.1041C77.2083 58.5 76.9583 57.6458 76.9583 56.5208V39.9166C76.9583 38.8125 77.1874 38 77.6666 37.4583C78.1458 36.9166 78.7916 36.6458 79.6249 36.6458C80.1249 36.6458 80.5833 36.7708 80.9999 37C81.4166 37.2291 81.7291 37.6041 81.9791 38.0833C82.2291 38.5625 82.3541 39.1458 82.3541 39.8333Z" fill="#ffffff"/>
<path d="M107.958 39.9167V56.5209C107.958 57.6667 107.687 58.5417 107.146 59.125C106.604 59.7084 105.896 60 105.062 60C104.229 60 103.542 59.7084 103 59.1042C102.479 58.5 102.208 57.6459 102.208 56.5209V40.0834C102.208 38.9375 102.479 38.0834 103 37.5209C103.521 36.9375 104.208 36.6667 105.062 36.6667C105.917 36.6667 106.604 36.9584 107.146 37.5209C107.687 38.0834 107.958 38.8959 107.958 39.9167Z" fill="#ffffff"/>
<path d="M109.021 28.6667C106.167 26.2708 103.354 23.7708 101.146 20.7292C100.062 19.2292 98.0208 16.6875 98.875 14.6875C99.2083 13.875 100.042 14 100.667 14.4583C101.625 15.1667 102.125 16.5 102.604 17.5417C103.208 18.8542 104.896 18.2292 105.333 17.1875C106.042 15.5 107.854 13.6042 109.875 13.8333C112.229 14.125 111.479 17.125 110.646 18.4792C110 19.5 109.125 20.3542 108.292 21.2292C107.25 22.3542 106.187 23.4792 105.146 24.6042C103.125 26.75 101.125 28.8958 99.1041 31.0625C97.7916 32.4583 99.8958 34.5833 101.229 33.1875C103.854 30.375 106.479 27.5833 109.104 24.7708C111.375 22.3542 114.229 19.875 114.458 16.3542C114.667 13.2292 112.333 10.5625 109.104 10.875C105.937 11.1875 103.625 13.6042 102.458 16.4167C103.375 16.2917 104.292 16.1875 105.187 16.0625C104 13.4792 101.896 10.3125 98.5416 11.2708C95.0625 12.2708 95.4375 16.75 96.7083 19.2917C99 23.8958 103.042 27.5417 106.917 30.7917C108.354 32 110.5 29.8958 109.021 28.6667Z" fill="#ffffff"/>
<path d="M19.5001 80.5416L18.1459 79.0833C17.8126 79.1875 17.4584 79.2291 17.0626 79.2291C16.3542 79.2291 15.6876 79.0625 15.1042 78.7291C14.5001 78.3958 14.0417 77.9375 13.6876 77.3333C13.3334 76.7291 13.1667 76.0625 13.1667 75.3125C13.1667 74.5625 13.3334 73.8958 13.6876 73.2916C14.0417 72.6875 14.5001 72.2291 15.1042 71.8958C15.7084 71.5625 16.3542 71.3958 17.0626 71.3958C17.7917 71.3958 18.4376 71.5625 19.0417 71.8958C19.6459 72.2291 20.1042 72.6875 20.4584 73.2916C20.8126 73.8958 20.9792 74.5625 20.9792 75.3125C20.9792 76.0208 20.8334 76.6458 20.5209 77.2291C20.2084 77.7916 19.7917 78.25 19.2501 78.6041L21.0834 80.5625H19.5001V80.5416ZM14.7917 76.7916C15.0209 77.2291 15.3334 77.5416 15.7292 77.7916C16.1251 78.0208 16.5834 78.1458 17.0834 78.1458C17.5834 78.1458 18.0417 78.0208 18.4376 77.7916C18.8334 77.5625 19.1459 77.2291 19.3751 76.7916C19.6042 76.3541 19.7084 75.8541 19.7084 75.2916C19.7084 74.7291 19.6042 74.2291 19.3751 73.8125C19.1459 73.3958 18.8334 73.0625 18.4376 72.8333C18.0417 72.6041 17.5834 72.5 17.0834 72.5C16.5834 72.5 16.1251 72.6041 15.7292 72.8333C15.3334 73.0625 15.0209 73.3958 14.7917 73.8125C14.5626 74.2291 14.4584 74.7291 14.4584 75.2916C14.4376 75.875 14.5626 76.3541 14.7917 76.7916Z" fill="#ffffff"/>
<path d="M29.1875 73.0833V79.1458H27.9375V78.4375C27.7292 78.6875 27.4792 78.875 27.1667 79.0208C26.8542 79.1666 26.5 79.2291 26.1458 79.2291C25.6667 79.2291 25.25 79.125 24.8542 78.9375C24.4792 78.7291 24.1875 78.4375 23.9583 78.0625C23.75 77.6666 23.625 77.2083 23.625 76.6458V73.0833H24.875V76.4583C24.875 77 25.0208 77.4166 25.2917 77.7083C25.5625 78 25.9375 78.1458 26.3958 78.1458C26.875 78.1458 27.2292 78 27.5208 77.7083C27.8125 77.4166 27.9375 77 27.9375 76.4583V73.0833H29.1875Z" fill="#ffffff"/>
<path d="M32.25 74.4583C32.5 73.9791 32.8541 73.625 33.2916 73.3541C33.7291 73.0833 34.2083 72.9583 34.75 72.9583C35.2291 72.9583 35.6458 73.0625 36 73.2291C36.3541 73.4166 36.6458 73.6458 36.8541 73.9375V73.0625H38.125V79.125H36.8541V78.2291C36.6458 78.5208 36.3541 78.75 35.9791 78.9375C35.6041 79.125 35.1875 79.2291 34.7291 79.2291C34.2083 79.2291 33.7291 79.1041 33.2916 78.8333C32.8541 78.5625 32.5208 78.1875 32.2708 77.7083C32.0208 77.2291 31.8958 76.6875 31.8958 76.0625C31.8541 75.4791 31.9791 74.9375 32.25 74.4583ZM36.5625 75.0208C36.3958 74.7083 36.1666 74.4791 35.875 74.3125C35.6041 74.1458 35.2916 74.0625 34.9791 74.0625C34.6458 74.0625 34.3541 74.1458 34.0833 74.2916C33.8125 74.4583 33.5833 74.6875 33.3958 74.9791C33.2291 75.2916 33.1458 75.6458 33.1458 76.0625C33.1458 76.4791 33.2291 76.8541 33.3958 77.1666C33.5625 77.4791 33.7916 77.7291 34.0833 77.8958C34.375 78.0625 34.6666 78.1458 34.9791 78.1458C35.3125 78.1458 35.6041 78.0625 35.875 77.8958C36.1458 77.7291 36.375 77.5 36.5625 77.1875C36.7291 76.875 36.8125 76.5 36.8125 76.0833C36.8125 75.6666 36.75 75.3125 36.5625 75.0208Z" fill="#ffffff"/>
<path d="M42.4375 71V79.1458H41.1875V71H42.4375Z" fill="#ffffff"/>
<path d="M45.6042 72.0417C45.4583 71.8958 45.375 71.6875 45.375 71.4792C45.375 71.2708 45.4583 71.0625 45.6042 70.8958C45.75 70.75 45.9583 70.6667 46.1667 70.6667C46.3958 70.6667 46.5833 70.75 46.7292 70.8958C46.875 71.0417 46.9583 71.25 46.9583 71.4792C46.9583 71.7083 46.875 71.8958 46.7292 72.0417C46.5833 72.1875 46.3958 72.2708 46.1667 72.2708C45.9583 72.2708 45.7708 72.1875 45.6042 72.0417ZM46.7917 73.0833V79.1458H45.5417V73.0833H46.7917Z" fill="#ffffff"/>
<path d="M51.3542 74.1041V77.4583C51.3542 77.6875 51.4167 77.8541 51.5208 77.9583C51.625 78.0625 51.8125 78.1041 52.0625 78.1041H52.8333V79.1458H51.8333C51.2708 79.1458 50.8333 79.0208 50.5417 78.75C50.25 78.4791 50.0833 78.0625 50.0833 77.4583V74.1041H49.375V73.0833H50.0833V71.5833H51.3542V73.0833H52.8333V74.1041H51.3542Z" fill="#ffffff"/>
<path d="M60.896 73.0833L57.1668 82H55.8752L57.1043 79.0417L54.7085 73.0625H56.1043L57.8127 77.6875L59.5835 73.0625H60.896V73.0833Z" fill="#ffffff"/>
<path d="M68.8543 78.125H71.4377V79.1458H67.5835V71.4792H68.8335V78.125H68.8543Z" fill="#ffffff"/>
<path d="M74.0002 72.0417C73.8543 71.8958 73.771 71.6875 73.771 71.4792C73.771 71.2708 73.8543 71.0625 74.0002 70.8958C74.146 70.75 74.3543 70.6667 74.5627 70.6667C74.7918 70.6667 74.9793 70.75 75.1252 70.8958C75.271 71.0417 75.3543 71.25 75.3543 71.4792C75.3543 71.7083 75.271 71.8958 75.1252 72.0417C74.9793 72.1875 74.7918 72.2708 74.5627 72.2708C74.3335 72.2708 74.146 72.1875 74.0002 72.0417ZM75.1877 73.0833V79.1458H73.9377V73.0833H75.1877Z" fill="#ffffff"/>
<path d="M80.625 78.0208L82.3333 73.0833H83.6667L81.3542 79.1458H79.8542L77.5625 73.0833H78.8958L80.625 78.0208Z" fill="#ffffff"/>
<path d="M86.1252 72.0417C85.9793 71.8958 85.896 71.6875 85.896 71.4792C85.896 71.2708 85.9793 71.0625 86.1252 70.8958C86.271 70.75 86.4793 70.6667 86.6877 70.6667C86.9168 70.6667 87.1043 70.75 87.2502 70.8958C87.396 71.0417 87.4793 71.25 87.4793 71.4792C87.4793 71.7083 87.396 71.8958 87.2502 72.0417C87.1043 72.1875 86.9168 72.2708 86.6877 72.2708C86.4793 72.2708 86.2918 72.1875 86.1252 72.0417ZM87.3127 73.0833V79.1458H86.0627V73.0833H87.3127Z" fill="#ffffff"/>
<path d="M94.7709 73.2708C95.1459 73.4792 95.4376 73.7708 95.6668 74.1458C95.8751 74.5417 95.9793 75 95.9793 75.5625V79.1458H94.7293V75.75C94.7293 75.2083 94.5834 74.7917 94.3126 74.5C94.0418 74.2083 93.6667 74.0625 93.2084 74.0625C92.7292 74.0625 92.3751 74.2083 92.0834 74.5C91.8126 74.7917 91.6667 75.2083 91.6667 75.75V79.1458H90.4167V73.0833H91.6667V73.7708C91.8751 73.5208 92.1251 73.3333 92.4584 73.1875C92.7709 73.0417 93.1251 72.9792 93.4793 72.9792C93.9584 72.9792 94.3751 73.0833 94.7709 73.2708Z" fill="#ffffff"/>
<path d="M102.708 73.25C103.063 73.4375 103.354 73.6667 103.563 73.9583V73.0833H104.833V79.25C104.833 79.8125 104.708 80.3125 104.479 80.75C104.25 81.1875 103.896 81.5208 103.458 81.7708C103.021 82.0208 102.479 82.1458 101.875 82.1458C101.042 82.1458 100.375 81.9583 99.8333 81.5625C99.2917 81.1875 98.9792 80.6458 98.9167 80H100.167C100.271 80.3125 100.458 80.5625 100.771 80.7708C101.083 80.9583 101.458 81.0625 101.896 81.0625C102.396 81.0625 102.813 80.9167 103.125 80.6042C103.438 80.2917 103.583 79.8542 103.583 79.2708V78.25C103.375 78.5417 103.083 78.7708 102.729 78.9792C102.375 79.1667 101.958 79.2708 101.5 79.2708C100.979 79.2708 100.479 79.1458 100.042 78.875C99.6042 78.6042 99.25 78.2292 99 77.75C98.75 77.2708 98.625 76.7292 98.625 76.1042C98.625 75.5 98.75 74.9583 99 74.4792C99.25 74 99.6042 73.6458 100.042 73.375C100.479 73.1042 100.958 72.9792 101.5 72.9792C101.917 72.9792 102.333 73.0625 102.708 73.25ZM103.292 75.0208C103.125 74.7083 102.896 74.4792 102.604 74.3125C102.333 74.1458 102.021 74.0625 101.708 74.0625C101.375 74.0625 101.083 74.1458 100.813 74.2917C100.542 74.4583 100.313 74.6875 100.125 74.9792C99.9583 75.2917 99.875 75.6458 99.875 76.0625C99.875 76.4792 99.9583 76.8542 100.125 77.1667C100.292 77.4792 100.521 77.7292 100.813 77.8958C101.104 78.0625 101.396 78.1458 101.708 78.1458C102.042 78.1458 102.333 78.0625 102.604 77.8958C102.875 77.7292 103.104 77.5 103.292 77.1875C103.458 76.875 103.542 76.5 103.542 76.0833C103.542 75.6667 103.479 75.3125 103.292 75.0208Z" fill="#ffffff"/>
</svg>
