<svg width="124" height="124" viewBox="0 0 124 124" fill="none" xmlns="http://www.w3.org/2000/svg">
    <path d="M70.747 89.308a2.043 2.043 0 0 0 3.992 0l.94-4.725h-5.873l.94 4.725zM49.988 89.308a2.036 2.036 0 0 0 3.981 0l.952-4.725h-5.874l.94 4.725zM59.252 66.1c-5.172.058-9.073 2.887-8.674 6.725 0 .11.383.47 1.072.47h21.7c.689 0 1.072-.36 1.072-.47v-.787c0-3.27-3.894-5.939-8.674-5.939h-6.496z" fill="#4953A4"/>
    <path d="M45.274 54.309a7.651 7.651 0 0 1 4.965 6.857l.186 6.147a12.28 12.28 0 0 1 8.827-3.401h6.496a12.277 12.277 0 0 1 8.827 3.401l.186-6.125a7.655 7.655 0 0 1 4.965-6.88l1.969-12.446a3.655 3.655 0 0 0-1.39-3.653 3.664 3.664 0 0 0-1.99-.58c-6.207-.324-8.935-3.613-15.662-3.565-6.83-.148-9.695 3.267-15.968 3.566a3.462 3.462 0 0 0-3.38 4.232l1.969 12.447zm2.855-12.053c.179-.232.442-.385.732-.427a28.118 28.118 0 0 0 6.388-1.793 19.095 19.095 0 0 1 7.295-1.597c2.51.045 4.985.588 7.284 1.597a28.22 28.22 0 0 0 6.31 1.793 1.044 1.044 0 0 1 .734.427c.174.235.249.53.207.82l-1.771 11.222a1.096 1.096 0 0 1-2.166-.34L74.75 43.81c-4.654-.792-7.534-3.183-12.13-3.183-4.802-.004-7.597 2.37-12.359 3.194l1.597 10.139a1.097 1.097 0 0 1-2.165.35l-1.761-11.222a1.077 1.077 0 0 1 .197-.831z" fill="#4953A4"/>
    <path d="M84.724 57.404c-2.857-3.061-7.695-.12-7.776 3.872l-.34 10.762c.237 1.915-.969 3.407-3.258 3.445h-21.7c-2.285-.038-3.498-1.528-3.26-3.445l-.338-10.784c-.076-3.966-4.935-6.913-7.777-3.85-2.74 2.885-.417 8.455 3.402 8.63a1.106 1.106 0 0 1 1.028 1.027l.842 12.185a3.39 3.39 0 0 0 3.292 3.15h27.322a3.39 3.39 0 0 0 3.292-3.15l.842-12.206a1.094 1.094 0 0 1 1.017-1.018c3.812-.13 6.164-5.734 3.412-8.618z" fill="#4953A4"/>
    <path fill-rule="evenodd" clip-rule="evenodd" d="M111.997 62.506a42.591 42.591 0 0 0 0-1.012l12-.119a65.003 65.003 0 0 1 0 1.25l-12-.12zm-.019-2.02 11.994-.357a63.745 63.745 0 0 0-.049-1.24l-11.985.594c.016.334.03.668.04 1.003zm-.1-2.01 11.971-.835c-.029-.415-.062-.829-.099-1.242l-11.952 1.073c.03.333.056.668.08 1.003zm-.18-2.005 11.928-1.313a72.075 72.075 0 0 0-.149-1.24l-11.9 1.551c.044.333.084.667.121 1.002zm-.261-1.996 11.866-1.791a62.837 62.837 0 0 0-.199-1.236l-11.827 2.03c.057.331.11.663.16.997zm-.341-1.987 11.784-2.269a61.97 61.97 0 0 0-.249-1.224l-11.735 2.507c.07.328.137.656.2.986zm-.421-1.97 11.682-2.744a61.18 61.18 0 0 0-.297-1.212l-11.624 2.98c.083.325.163.65.239.977zm-.5-1.95 11.561-3.217a60.526 60.526 0 0 0-.347-1.2l-11.493 3.45c.096.321.189.643.279.967zm-.579-1.928 11.421-3.683c-.128-.398-.26-.793-.396-1.187l-11.344 3.914c.11.317.216.636.319.956zm-.656-1.903 11.262-4.144a65.894 65.894 0 0 0-.444-1.17l-11.176 4.371c.122.313.242.627.358.943zm-.734-1.876 11.085-4.597c-.16-.385-.324-.769-.491-1.15l-10.989 4.82c.134.307.266.616.395.927zm-.809-1.845 10.889-5.042a63.66 63.66 0 0 0-.536-1.128l-10.785 5.261c.147.301.291.604.432.909zm-.883-1.81 10.676-5.478c-.19-.37-.383-.74-.581-1.105l-10.564 5.692c.159.295.316.592.469.89zm-.955-1.773 10.446-5.904a62.143 62.143 0 0 0-.625-1.081l-10.326 6.114c.171.288.339.579.505.871zm-1.026-1.733 10.2-6.32a60.886 60.886 0 0 0-.668-1.055l-10.072 6.525c.183.281.363.565.54.85zm-1.095-1.69 9.938-6.725a66.81 66.81 0 0 0-.71-1.027l-9.801 6.924c.193.274.384.55.573.828zm-1.162-1.645 9.659-7.12a59.502 59.502 0 0 0-.75-.996l-9.515 7.312c.204.266.406.534.606.804zm-1.228-1.597 9.367-7.5a58.3 58.3 0 0 0-.79-.966l-9.214 7.687c.215.258.428.517.637.78zm-1.29-1.546 9.059-7.87a62.728 62.728 0 0 0-.828-.933l-8.899 8.05c.225.249.448.5.668.753zm-1.35-1.493 8.735-8.227a62.131 62.131 0 0 0-.864-.9l-8.57 8.4c.236.24.468.482.698.727zm-1.41-1.439 8.399-8.57c-.296-.29-.596-.578-.899-.863l-8.227 8.736c.245.23.487.462.727.697zm-1.467-1.38 8.051-8.9c-.309-.278-.62-.554-.934-.827l-7.87 9.059c.253.22.504.443.753.668zm-1.52-1.321 7.687-9.214c-.319-.267-.641-.53-.965-.79l-7.502 9.367c.263.21.522.422.78.637zM92.44 22.33l7.312-9.515c-.33-.253-.662-.503-.997-.75l-7.12 9.66c.27.199.54.4.805.605zm-1.62-1.195 6.923-9.8a61.61 61.61 0 0 0-1.027-.71l-6.725 9.937c.278.188.554.38.828.573zm-1.669-1.129 6.525-10.07c-.35-.227-.7-.45-1.055-.67L88.3 19.468c.285.177.569.357.85.54zm-1.712-1.06L93.552 8.62a61.72 61.72 0 0 0-1.08-.625L86.567 18.44c.292.166.583.334.871.505zm-1.753-.992 5.692-10.563a61.976 61.976 0 0 0-1.105-.581l-5.478 10.676c.299.153.596.31.89.468zm-1.792-.919L89.154 6.25c-.374-.182-.75-.361-1.128-.536l-5.042 10.89c.305.14.608.284.909.431zm-1.827-.846L86.886 5.2c-.381-.167-.765-.33-1.15-.49l-4.597 11.084c.31.129.62.26.927.395zm-1.86-.771 4.371-11.176c-.388-.151-.778-.3-1.17-.444L79.262 15.06c.316.116.63.236.943.358zm-1.89-.695L82.23 3.379c-.394-.136-.79-.268-1.187-.396l-3.683 11.42c.32.104.639.21.956.32zm-1.917-.619 3.45-11.493c-.398-.12-.799-.235-1.2-.347l-3.217 11.56c.324.09.646.184.967.28zm-1.942-.54L77.438 1.94a61.76 61.76 0 0 0-1.212-.297l-2.745 11.681c.327.077.652.157.977.24zm-1.959-.46 2.507-11.735c-.406-.087-.814-.17-1.224-.249l-2.27 11.784c.33.063.66.13.987.2zm-1.977-.38L72.552.895c-.41-.07-.822-.137-1.236-.199l-1.79 11.866c.332.05.665.103.995.16zm-1.99-.301 1.552-11.9a62.092 62.092 0 0 0-1.241-.149l-1.313 11.928a49.9 49.9 0 0 1 1.002.12zm-2.003-.22L67.601.25c-.413-.037-.827-.07-1.242-.099l-.834 11.971c.335.024.67.05 1.003.08zm-2.011-.14L65.11.076c-.413-.02-.826-.037-1.24-.05l-.357 11.996c.335.01.67.023 1.003.04zm-2.011-.06.119-12a63.053 63.053 0 0 0-1.25 0l.12 12a50.107 50.107 0 0 1 1.01 0zm-2.02.02L60.13.028c-.414.012-.828.029-1.24.049l.594 11.985c.334-.016.668-.03 1.003-.04zm-2.01.1L57.64.15c-.415.03-.829.062-1.242.1l1.073 11.951c.333-.03.668-.056 1.003-.08zm-2.005.18L55.158.373c-.415.046-.828.096-1.24.15l1.551 11.899a49.9 49.9 0 0 1 1.002-.12zm-1.996.26L52.684.697c-.414.062-.826.129-1.236.2l2.03 11.826c.331-.057.663-.11.997-.16zm-1.987.34L50.22 1.12c-.41.079-.818.162-1.224.249l2.507 11.735c.328-.07.656-.137.986-.2zm-1.97.421L47.775 1.644c-.406.095-.81.194-1.212.297l2.98 11.624c.325-.083.65-.163.977-.24zm-1.95.5L45.35 2.265c-.401.112-.802.227-1.2.347l3.45 11.493c.321-.096.643-.19.967-.28zm-1.928.58L42.957 2.983c-.398.128-.793.26-1.187.396l3.914 11.344c.317-.11.636-.216.956-.32zm-1.903.656L40.593 3.798c-.392.144-.782.293-1.17.444l4.371 11.176c.313-.122.627-.242.943-.358zm-1.876.734L38.264 4.709c-.385.16-.769.324-1.15.491l4.82 10.99c.307-.136.616-.267.927-.396zm-1.845.81-5.042-10.89c-.378.175-.754.354-1.128.536l5.261 10.785c.301-.147.604-.29.909-.432zm-1.81.882L33.728 6.81c-.37.19-.74.383-1.105.58l5.692 10.564c.295-.159.592-.315.89-.468zm-1.773.955L31.53 7.995c-.363.205-.723.413-1.081.625l6.114 10.326c.288-.171.579-.34.871-.505zM35.7 19.467l-6.32-10.2c-.354.22-.706.442-1.055.668l6.525 10.071c.281-.182.565-.362.85-.539zm-1.69 1.095-6.725-9.938c-.345.234-.688.47-1.027.71l6.924 9.801c.274-.194.55-.385.828-.573zm-1.645 1.162-7.12-9.66c-.334.248-.666.498-.996.751l7.312 9.515c.266-.204.534-.406.804-.606zm-1.597 1.228-7.5-9.367c-.325.26-.647.523-.966.79l7.687 9.214c.258-.215.517-.427.78-.637zm-1.546 1.29-7.87-9.059a62.12 62.12 0 0 0-.933.828l8.05 8.899c.249-.225.5-.448.753-.668zm-1.493 1.35-8.227-8.735c-.303.285-.603.573-.9.864l8.4 8.57c.24-.236.482-.468.727-.698zm-1.439 1.41-8.57-8.4c-.29.297-.578.597-.863.9l8.736 8.227c.23-.245.462-.487.697-.726zm-1.38 1.467-8.9-8.05c-.278.308-.554.619-.827.933l9.059 7.87c.22-.253.443-.505.668-.753zm-1.321 1.52-9.214-7.687c-.267.319-.53.64-.79.965l9.367 7.502c.21-.262.422-.522.637-.78zM22.33 31.56l-9.515-7.312c-.253.33-.503.662-.75.997l9.66 7.12c.199-.27.4-.54.605-.805zm-1.195 1.62-9.8-6.923c-.24.34-.477.682-.71 1.027l9.937 6.726c.188-.279.38-.555.573-.83zm-1.129 1.669-10.07-6.525c-.227.35-.45.7-.67 1.055l10.201 6.32c.177-.285.357-.569.54-.85zm-1.06 1.712L8.62 30.448c-.212.358-.42.718-.625 1.08l10.446 5.905c.166-.292.334-.583.505-.871zm-.992 1.753L7.391 32.623c-.198.366-.391.734-.581 1.105l10.676 5.478c.153-.299.31-.596.468-.89zm-.919 1.792L6.25 34.846c-.182.374-.361.75-.536 1.128l10.89 5.042c.14-.305.284-.608.431-.909zm-.846 1.827L5.2 37.114c-.167.381-.33.765-.49 1.15l11.084 4.597c.129-.31.26-.62.395-.927zm-.771 1.86L4.242 39.423c-.151.388-.3.778-.444 1.17l11.262 4.144c.116-.316.236-.63.358-.943zm-.695 1.89L3.379 41.77c-.136.394-.268.79-.396 1.187l11.42 3.683c.104-.32.21-.639.32-.956zm-.619 1.917-11.493-3.45c-.12.398-.235.799-.347 1.2l11.56 3.217c.09-.324.184-.646.28-.967zm-.54 1.941L1.94 46.563a61.76 61.76 0 0 0-.297 1.212l11.681 2.745c.077-.327.157-.652.24-.977zm-.46 1.96L1.369 48.995c-.087.406-.17.815-.249 1.224l11.784 2.27c.063-.33.13-.66.2-.987zm-.38 1.977L.895 51.448c-.07.41-.137.822-.199 1.236l11.866 1.79c.05-.332.103-.664.16-.995zm-.301 1.99-11.9-1.552c-.053.413-.103.826-.149 1.241l11.928 1.313a49.9 49.9 0 0 1 .12-1.002zm-.22 2.003L.25 56.399c-.037.413-.07.827-.099 1.242l11.971.834c.024-.335.05-.67.08-1.003zm-.14 2.011L.076 58.89c-.02.412-.037.826-.05 1.24l11.996.357c.01-.335.023-.67.04-1.003zm-.06 2.011a50.107 50.107 0 0 0 0 1.012l-12 .119a63.053 63.053 0 0 1 0-1.25l12 .12zm.02 2.02L.028 63.87c.012.414.029.827.049 1.24l11.985-.594c-.016-.334-.03-.668-.04-1.003zm.1 2.01L.15 66.36c.03.415.062.829.1 1.242l11.951-1.073c-.03-.333-.056-.668-.08-1.003zm.18 2.005L.373 68.842c.046.415.096.828.15 1.24l11.899-1.551a49.9 49.9 0 0 1-.12-1.002zm.26 1.996L.697 71.316c.062.414.129.826.2 1.236l11.826-2.03c-.057-.332-.11-.663-.16-.997zm.34 1.987L1.12 73.78c.079.41.162.818.249 1.224l11.735-2.507c-.07-.328-.137-.656-.2-.986zm.421 1.97L1.644 76.225c.095.406.194.81.297 1.212l11.624-2.98c-.083-.325-.163-.65-.24-.977zm.5 1.95L2.265 78.65c.112.401.227.802.347 1.2l11.493-3.45c-.096-.321-.19-.643-.28-.967zm.58 1.928L2.983 81.043c.128.398.26.793.396 1.187l11.344-3.914c-.11-.317-.216-.636-.32-.956zm.656 1.903L3.798 83.406c.144.393.293.783.444 1.171l11.176-4.371a49.384 49.384 0 0 1-.358-.943zm.734 1.876L4.709 85.736c.16.385.324.769.491 1.15l10.99-4.82a49.927 49.927 0 0 1-.396-.927zm.81 1.845-10.89 5.042c.175.378.354.754.536 1.128l10.785-5.261a49.086 49.086 0 0 1-.432-.909zm.882 1.81L6.81 90.272c.19.37.383.74.58 1.105l10.564-5.692a50.583 50.583 0 0 1-.468-.89zm.955 1.773L7.995 92.472c.205.362.413.722.625 1.08l10.326-6.114c-.171-.288-.34-.579-.505-.871zm1.026 1.733-10.2 6.32c.22.354.442.706.668 1.055l10.071-6.525a49.215 49.215 0 0 1-.539-.85zm1.095 1.69-9.938 6.725c.234.345.47.688.71 1.027l9.801-6.924c-.194-.274-.385-.55-.573-.828zm1.162 1.645-9.66 7.12c.248.334.498.666.751.996l9.515-7.312a49.573 49.573 0 0 1-.606-.804zm1.228 1.596-9.367 7.502c.26.324.523.646.79.965l9.214-7.687a51.26 51.26 0 0 1-.637-.78zm1.29 1.547-9.059 7.87c.273.314.549.625.828.934l8.899-8.05c-.225-.25-.448-.5-.668-.754zm1.35 1.493-8.735 8.227c.285.303.573.603.864.899l8.57-8.4c-.236-.24-.468-.481-.698-.726zm1.41 1.439-8.4 8.569c.297.291.597.579.9.864l8.227-8.736a50.31 50.31 0 0 1-.726-.697zm1.467 1.38-8.05 8.899c.308.279.619.555.933.828l7.87-9.059c-.253-.22-.505-.443-.753-.668zm1.52 1.321-7.687 9.214c.319.267.64.53.965.79l7.502-9.367a45.861 45.861 0 0 1-.78-.637zm1.572 1.259-7.312 9.515c.33.253.662.504.997.75l7.12-9.659c-.27-.2-.54-.402-.805-.606zm1.62 1.195-6.923 9.801c.34.24.682.476 1.027.71l6.726-9.938c-.279-.189-.555-.38-.83-.573zm1.669 1.128-6.525 10.072c.35.226.7.449 1.055.668l6.32-10.2c-.285-.177-.569-.357-.85-.54zm1.712 1.061-6.114 10.326c.358.212.718.42 1.08.625l5.905-10.446a54.272 54.272 0 0 1-.871-.505zm1.753.991-5.692 10.564c.366.198.734.391 1.105.581l5.478-10.676c-.299-.153-.596-.31-.89-.469zm1.792.92-5.261 10.785c.374.182.75.361 1.128.536l5.042-10.889a49.086 49.086 0 0 1-.909-.432zm1.827.846-4.82 10.989c.381.167.765.331 1.15.491l4.597-11.085a58.15 58.15 0 0 1-.927-.395zm1.86.771-4.371 11.176c.388.151.778.3 1.17.444l4.144-11.262c-.316-.116-.63-.236-.943-.358zm1.89.695-3.914 11.344c.394.136.79.268 1.187.396l3.683-11.421c-.32-.103-.639-.209-.956-.319zm1.917.619-3.45 11.493c.398.12.799.235 1.2.347l3.217-11.561a51.82 51.82 0 0 1-.967-.279zm1.941.54-2.98 11.624c.402.103.806.202 1.212.297l2.745-11.682a45.522 45.522 0 0 1-.977-.239zm1.96.46-2.507 11.735c.406.087.815.17 1.224.249l2.27-11.784c-.33-.063-.66-.13-.987-.2zm1.977.381-2.031 11.827c.41.07.822.137 1.236.199l1.79-11.866c-.332-.05-.664-.103-.995-.16zm1.99.3-1.552 11.9c.413.053.826.103 1.241.149l1.313-11.928a47.059 47.059 0 0 1-1.001-.121zm2.003.221-1.073 11.952c.413.037.827.07 1.242.099l.834-11.971c-.335-.024-.67-.05-1.003-.08zm2.011.14-.594 11.985c.412.02.826.037 1.24.049l.357-11.994c-.335-.01-.67-.024-1.003-.04zm2.011.059-.119 12a65.003 65.003 0 0 0 1.25 0l-.12-12a42.591 42.591 0 0 1-1.01 0zm2.02-.019.357 11.994c.414-.012.827-.029 1.24-.049l-.594-11.985c-.334.016-.668.03-1.003.04zm2.01-.1.835 11.971c.415-.029.829-.062 1.242-.099l-1.073-11.952c-.333.03-.668.056-1.003.08zm2.005-.18 1.313 11.928c.415-.046.828-.096 1.24-.149l-1.551-11.9c-.333.044-.667.084-1.002.121zm1.996-.261 1.791 11.866c.414-.062.826-.129 1.236-.199l-2.03-11.827c-.332.057-.663.11-.997.16zm1.987-.341 2.269 11.784c.41-.079.818-.162 1.224-.249l-2.507-11.735c-.328.07-.656.137-.986.2zm1.97-.421 2.744 11.682c.406-.095.81-.194 1.212-.297l-2.98-11.624c-.325.083-.65.163-.977.239zm1.95-.5 3.217 11.561c.401-.112.802-.227 1.2-.347l-3.45-11.493c-.321.096-.643.189-.967.279zm1.928-.579 3.683 11.421c.398-.128.793-.26 1.187-.396l-3.914-11.344c-.317.11-.636.216-.956.319zm1.903-.656 4.143 11.262c.393-.144.783-.293 1.171-.444l-4.371-11.176c-.313.122-.627.242-.943.358zm1.876-.734 4.597 11.085c.385-.16.769-.324 1.15-.491l-4.82-10.989a57.76 57.76 0 0 1-.927.395zm1.845-.809 5.042 10.889a63.66 63.66 0 0 0 1.128-.536l-5.261-10.785c-.301.147-.604.291-.909.432zm1.81-.883 5.478 10.676c.37-.19.74-.383 1.105-.581l-5.692-10.564c-.295.159-.592.316-.89.469zm1.773-.955 5.905 10.446c.362-.205.722-.413 1.08-.625l-6.114-10.326c-.288.171-.579.339-.871.505zm1.733-1.026 6.32 10.2c.354-.219.706-.442 1.055-.668l-6.525-10.072c-.281.183-.565.363-.85.54zm1.69-1.095 6.725 9.938c.345-.234.688-.47 1.027-.71l-6.924-9.801c-.274.193-.55.384-.828.573zm1.645-1.162 7.12 9.659c.334-.246.666-.497.996-.75l-7.312-9.515c-.266.204-.534.406-.804.606zm1.596-1.228 7.502 9.367a60.4 60.4 0 0 0 .965-.79l-7.687-9.214c-.258.215-.517.428-.78.637zm1.547-1.29 7.87 9.059c.314-.273.625-.549.934-.828l-8.05-8.899c-.25.225-.5.448-.754.668zm1.493-1.35 8.227 8.735c.303-.285.603-.573.899-.864l-8.4-8.57c-.24.236-.481.468-.726.698zm1.439-1.41 8.569 8.399c.291-.296.579-.596.864-.899l-8.736-8.227c-.23.245-.462.487-.697.727zm1.38-1.467 8.899 8.051c.279-.309.555-.62.828-.934l-9.059-7.87c-.22.253-.443.504-.668.753zm1.321-1.52 9.214 7.687a60.4 60.4 0 0 0 .79-.965l-9.367-7.502c-.209.263-.422.522-.637.78zm1.259-1.572 9.515 7.312c.253-.33.504-.662.75-.997l-9.659-7.12c-.2.27-.402.54-.606.805zm1.195-1.62 9.801 6.923c.24-.34.476-.682.71-1.027l-9.938-6.725c-.189.278-.38.554-.573.828zm1.128-1.669 10.072 6.525c.226-.35.449-.7.668-1.055l-10.2-6.32c-.177.285-.357.569-.54.85zm1.061-1.712 10.326 6.114c.212-.358.42-.718.625-1.08l-10.446-5.905c-.166.292-.334.583-.505.871zm.991-1.753 10.564 5.692c.198-.366.391-.734.581-1.105l-10.676-5.478c-.153.299-.31.596-.469.89zm.92-1.792 10.785 5.261c.182-.374.361-.75.536-1.128l-10.889-5.042c-.141.305-.285.608-.432.909zm.846-1.827 10.989 4.82c.167-.381.331-.765.491-1.15l-11.085-4.597c-.129.31-.261.62-.395.927zm.771-1.86 11.176 4.371c.151-.388.3-.778.444-1.17l-11.262-4.144c-.116.316-.236.63-.358.943zm.695-1.89 11.344 3.914c.136-.394.268-.79.396-1.187l-11.421-3.683c-.103.32-.209.639-.319.956zm.619-1.917 11.493 3.45c.12-.398.235-.799.347-1.2l-11.561-3.217c-.09.324-.183.646-.279.967zm.54-1.942 11.624 2.981c.103-.402.202-.806.297-1.212l-11.682-2.745c-.076.327-.156.652-.239.977zm.46-1.959 11.735 2.507c.087-.406.17-.814.249-1.224l-11.784-2.27c-.063.33-.13.66-.2.987zm.381-1.977 11.827 2.031c.07-.41.137-.822.199-1.236l-11.866-1.79c-.05.332-.103.665-.16.995zm.3-1.99 11.9 1.552c.053-.413.103-.826.149-1.241l-11.928-1.313c-.037.335-.077.669-.121 1.001zm.221-2.003 11.952 1.073c.037-.413.07-.827.099-1.242l-11.971-.834c-.024.335-.05.67-.08 1.003zm.14-2.011 11.985.594c.02-.413.037-.826.049-1.24l-11.994-.357c-.01.335-.024.67-.04 1.003z" fill="#F47F72" fill-opacity=".2"/>
    <path fill-rule="evenodd" clip-rule="evenodd" d="M62 108c25.405 0 46-20.595 46-46S87.405 16 62 16 16 36.595 16 62s20.595 46 46 46zm0 4c27.614 0 50-22.386 50-50S89.614 12 62 12 12 34.386 12 62s22.386 50 50 50z" fill="#F47F72" fill-opacity=".6"/>
</svg>
